<svg width="818" height="818" viewBox="0 0 818 818" fill="none" xmlns="http://www.w3.org/2000/svg">
<path fill-rule="evenodd" clip-rule="evenodd" d="M408.802 817.604C634.577 817.604 817.604 634.577 817.604 408.802C817.604 183.027 634.577 0 408.802 0C183.027 0 0 183.027 0 408.802C0 634.577 183.027 817.604 408.802 817.604ZM408.802 732.198C588.559 732.198 734.281 586.476 734.281 406.719C734.281 226.962 588.559 81.2396 408.802 81.2396C229.045 81.2396 83.3227 226.962 83.3227 406.719C83.3227 586.476 229.045 732.198 408.802 732.198Z" fill="#263747"/>
<path d="M197.013 315.298C181.392 299.677 181.392 274.35 197.013 258.729L199.362 256.38C214.983 240.759 240.31 240.759 255.931 256.38L379.798 380.248C395.419 395.869 395.419 421.195 379.798 436.816L377.449 439.166C361.828 454.787 336.501 454.787 320.88 439.166L197.013 315.298Z" fill="#263747"/>
<path d="M379.799 437.157C395.419 421.536 395.419 396.21 379.798 380.589L377.449 378.239C361.828 362.618 336.501 362.618 320.88 378.239L197.013 502.107C181.392 517.728 181.392 543.055 197.013 558.676L199.362 561.025C214.983 576.646 240.31 576.646 255.931 561.025L379.799 437.157Z" fill="#263747"/>
<path d="M620.393 502.107C636.013 517.728 636.013 543.055 620.392 558.676L618.043 561.025C602.422 576.646 577.095 576.646 561.474 561.025L437.607 437.157C421.986 421.536 421.986 396.21 437.607 380.589L439.956 378.239C455.577 362.618 480.904 362.618 496.525 378.239L620.393 502.107Z" fill="#263747"/>
<path d="M437.607 380.248C421.986 395.869 421.986 421.195 437.607 436.816L439.956 439.166C455.577 454.787 480.904 454.787 496.525 439.166L620.392 315.298C636.013 299.677 636.013 274.35 620.392 258.729L618.043 256.38C602.422 240.759 577.095 240.759 561.474 256.38L437.607 380.248Z" fill="#263747"/>
</svg>
